HIERARCHY
ROOT hip
{
  OFFSET 0 0 0
  CHANNELS 6 Xposition Yposition Zposition Zrotation Yrotation Xrotation
  JOINT abdomen
  {
    OFFSET 0 20.6881 -0.73152
    CHANNELS 3 Zrotation Xrotation Yrotation
    JOINT chest
    {
      OFFSET 0 11.7043 -0.48768
      CHANNELS 3 Zrotation Xrotation Yrotation
      JOINT neck
      {
        OFFSET 0 22.1894 -2.19456
        CHANNELS 3 Zrotation Xrotation Yrotation
        JOINT head
        {
          OFFSET -0.24384 7.07133 1.2192
          CHANNELS 3 Zrotation Xrotation Yrotation
          JOINT leftEye
          {
            OFFSET 4.14528 8.04674 8.04672
            CHANNELS 3 Zrotation Xrotation Yrotation
            End Site
            {
              OFFSET 1 0 0
            }
          }
          JOINT rightEye
          {
            OFFSET -3.6576 8.04674 8.04672
            CHANNELS 3 Zrotation Xrotation Yrotation
            End Site
            {
              OFFSET 1 0 0
            }
          }
        }
      }
      JOINT rCollar
      {
        OFFSET -2.68224 19.2634 -4.8768
        CHANNELS 3 Zrotation Xrotation Yrotation
        JOINT rShldr
        {
          OFFSET -8.77824 -1.95073 1.46304
          CHANNELS 3 Zrotation Xrotation Yrotation
          JOINT rForeArm
          {
            OFFSET -28.1742 -1.7115 0.48768
            CHANNELS 3 Zrotation Xrotation Yrotation
            JOINT rHand
            {
              OFFSET -22.5879 0.773209 7.07136
              CHANNELS 3 Zrotation Xrotation Yrotation
              JOINT rThumb1
              {
                OFFSET -1.2192 -0.487915 3.41376
                CHANNELS 3 Zrotation Xrotation Yrotation
                JOINT rThumb2
                {
                  OFFSET -3.37035 -0.52449 3.41376
                  CHANNELS 3 Zrotation Xrotation Yrotation
                  End Site
                  {
                    OFFSET -1.78271 -1.18214 1.43049
                  }
                }
              }
              JOINT rIndex1
              {
                OFFSET -7.75947 0.938293 5.60832
                CHANNELS 3 Zrotation Xrotation Yrotation
                JOINT rIndex2
                {
                  OFFSET -2.54057 -0.884171 1.56538
                  CHANNELS 3 Zrotation Xrotation Yrotation
                  End Site
                  {
                    OFFSET -1.62519 -0.234802 1.16502
                  }
                }
              }
              JOINT rMid1
              {
                OFFSET -8.24714 1.18213 3.41376
                CHANNELS 3 Zrotation Xrotation Yrotation
                JOINT rMid2
                {
                  OFFSET -3.10165 -0.590103 1.0647
                  CHANNELS 3 Zrotation Xrotation Yrotation
                  End Site
                  {
                    OFFSET -2.48547 -0.328903 0.83742
                  }
                }
              }
              JOINT rRing1
              {
                OFFSET -8.82822 0.546677 1.51678
                CHANNELS 3 Zrotation Xrotation Yrotation
                JOINT rRing2
                {
                  OFFSET -2.60934 -0.819778 -0.0198488
                  CHANNELS 3 Zrotation Xrotation Yrotation
                  End Site
                  {
                    OFFSET -2.33842 -0.294052 0.168128
                  }
                }
              }
              JOINT rPinky1
              {
                OFFSET -8.27202 -0.0477905 -0.4584
                CHANNELS 3 Zrotation Xrotation Yrotation
                JOINT rPinky2
                {
                  OFFSET -1.82734 -0.647385 -0.700984
                  CHANNELS 3 Zrotation Xrotation Yrotation
                  End Site
                  {
                    OFFSET -1.69225 -0.51767 -0.607171
                  }
                }
              }
            }
          }
        }
      }
      JOINT lCollar
      {
        OFFSET 2.68224 19.2634 -4.8768
        CHANNELS 3 Zrotation Xrotation Yrotation
        JOINT lShldr
        {
          OFFSET 8.77824 -1.95073 1.46304
          CHANNELS 3 Zrotation Xrotation Yrotation
          JOINT lForeArm
          {
            OFFSET 28.1742 -1.7115 0.48768
            CHANNELS 3 Zrotation Xrotation Yrotation
            JOINT lHand
            {
              OFFSET 22.5879 0.773209 7.07136
              CHANNELS 3 Zrotation Xrotation Yrotation
              JOINT lThumb1
              {
                OFFSET 1.2192 -0.487915 3.41376
                CHANNELS 3 Zrotation Xrotation Yrotation
                JOINT lThumb2
                {
                  OFFSET 3.37035 -0.52449 3.41376
                  CHANNELS 3 Zrotation Xrotation Yrotation
                  End Site
                  {
                    OFFSET 1.78271 -1.18214 1.43049
                  }
                }
              }
              JOINT lIndex1
              {
                OFFSET 7.75947 0.938293 5.60832
                CHANNELS 3 Zrotation Xrotation Yrotation
                JOINT lIndex2
                {
                  OFFSET 2.54057 -0.884171 1.56538
                  CHANNELS 3 Zrotation Xrotation Yrotation
                  End Site
                  {
                    OFFSET 1.62519 -0.234802 1.16502
                  }
                }
              }
              JOINT lMid1
              {
                OFFSET 8.24714 1.18213 3.41376
                CHANNELS 3 Zrotation Xrotation Yrotation
                JOINT lMid2
                {
                  OFFSET 3.10165 -0.590103 1.0647
                  CHANNELS 3 Zrotation Xrotation Yrotation
                  End Site
                  {
                    OFFSET 2.48547 -0.328903 0.83742
                  }
                }
              }
              JOINT lRing1
              {
                OFFSET 8.82822 0.546677 1.51678
                CHANNELS 3 Zrotation Xrotation Yrotation
                JOINT lRing2
                {
                  OFFSET 2.60934 -0.819778 -0.0198488
                  CHANNELS 3 Zrotation Xrotation Yrotation
                  End Site
                  {
                    OFFSET 2.33842 -0.294052 0.168128
                  }
                }
              }
              JOINT lPinky1
              {
                OFFSET 8.27202 -0.0477905 -0.4584
                CHANNELS 3 Zrotation Xrotation Yrotation
                JOINT lPinky2
                {
                  OFFSET 1.82734 -0.647385 -0.700984
                  CHANNELS 3 Zrotation Xrotation Yrotation
                  End Site
                  {
                    OFFSET 1.69225 -0.51767 -0.607171
                  }
                }
              }
            }
          }
        }
      }
    }
  }
  JOINT rButtock
  {
    OFFSET -8.77824 4.35084 1.2192
    CHANNELS 3 Zrotation Xrotation Yrotation
    JOINT rThigh
    {
      OFFSET 0 -1.70687 -2.19456
      CHANNELS 3 Zrotation Xrotation Yrotation
      JOINT rShin
      {
        OFFSET 0 -36.8199 0.73152
        CHANNELS 3 Zrotation Xrotation Yrotation
        JOINT rFoot
        {
          OFFSET 0.73152 -45.1104 -5.12064
          CHANNELS 3 Zrotation Xrotation Yrotation
          End Site
          {
            OFFSET -1.1221 -3.69964 12.103
          }
        }
      }
    }
  }
  JOINT lButtock
  {
    OFFSET 8.77824 4.35084 1.2192
    CHANNELS 3 Zrotation Xrotation Yrotation
    JOINT lThigh
    {
      OFFSET 0 -1.70687 -2.19456
      CHANNELS 3 Zrotation Xrotation Yrotation
      JOINT lShin
      {
        OFFSET 0 -36.8199 0.73152
        CHANNELS 3 Zrotation Xrotation Yrotation
        JOINT lFoot
        {
          OFFSET -0.73152 -45.1104 -5.12064
          CHANNELS 3 Zrotation Xrotation Yrotation
          End Site
          {
            OFFSET 1.1221 -3.69964 12.103
          }
        }
      }
    }
  }
}
MOTION
Frames:	4
Frame Time:	0.00833333
42.1564 84.2713 -199.303 0.0 0.0 0.0 0.262211 -0.00240321 0.00752835 0.0724434 -0.0038823 0.0125516 4.59838e-15 -7.95139e-16 -9.62863e-17 1.38373e-14 3.18055e-15 -2.76435e-16 -0.0 0.0 0.0 -0.0 0.0 0.0 2.38411e-15 -9.31803e-18 1.49089e-16 4.96789e-14 1.98785e-16 0.0 8.26298e-13 -2.55438e-13 -4.13472e-14 9.48953e-12 2.09395e-13 -1.62208e-13 2.23767e-11 -1.0582e-13 -4.23014e-13 3.86342e-11 -1.87653e-13 -7.4743e-13 2.2382e-11 -1.03368e-13 -4.42097e-13 7.73091 5.47488 0.417314 2.2376e-11 -1.06052e-13 -4.29375e-13 2.90554 0.965183 0.102902 2.23837e-11 -1.05555e-13 -4.26989e-13 10.2786 0.731801 0.0259123 2.2371e-11 -1.03766e-13 -4.16653e-13 2.22167 -0.733487 -0.20892 2.28748e-15 -8.92978e-18 -2.48481e-16 4.61587e-14 -9.93923e-17 -1.59028e-15 8.30473e-13 2.41921e-13 -2.22639e-14 9.48441e-12 -2.78945e-13 -1.65389e-13 2.23784e-11 -8.62201e-14 -4.23014e-13 3.86545e-11 -1.55847e-13 -7.29142e-13 2.23732e-11 -8.62725e-14 -4.13472e-13 -7.73091 5.47488 -0.417314 2.23794e-11 -8.60738e-14 -4.26194e-13 -2.90554 0.965183 -0.102902 2.23718e-11 -8.56762e-14 -4.24604e-13 -10.2786 0.731801 -0.0259123 2.23834e-11 -8.54774e-14 -4.38917e-13 -2.22167 -0.733487 0.20892 -2.03217e-16 0.0 -3.88251e-19 0.660442 -3.79299 -0.0559807 -0.00363595 1.31888 -0.0297737 -0.463021 2.47431 0.102444 2.03217e-16 0.0 3.88251e-19 -0.26003 -2.74928 0.0308223 0.00660614 -0.571628 0.0578556 0.458247 3.32107 -0.118789
40.9161 81.9577 -200.711 -3.6678 1.3149 7.1136 1.44777 -1.73323 0.439791 0.748957 0.185137 0.104853 -3.75052 -0.491749 -1.44617 6.85789 -2.57421 -1.1499 -0.0 0.0 0.0 -0.0 0.0 0.0 2.24187e-14 -2.17057e-14 1.06404e-14 18.8949 11.637 -0.909293 -9.84733 -6.70609 12.2025 0.15232 -8.68019 -1.17006 -1.80562e-10 4.21179e-10 8.24834e-11 -3.13343e-10 7.3357e-10 1.39005e-10 -1.80559e-10 4.21181e-10 8.24672e-11 7.73091 5.47488 0.417314 -1.80563e-10 4.21179e-10 8.24789e-11 2.90554 0.965183 0.102902 -1.80557e-10 4.21179e-10 8.24818e-11 10.2786 0.731801 0.0259123 -1.80569e-10 4.21182e-10 8.24909e-11 2.22167 -0.733487 -0.20892 2.23481e-14 -2.17046e-14 1.02463e-14 -21.5963 8.82007 0.607463 3.96529 -1.75381 -6.24456 -0.00782692 -1.9629 0.275284 -2.10055e-11 -6.36203e-11 -3.81113e-10 -3.42222e-11 -1.07157e-10 -6.59978e-10 -2.1009e-11 -6.36202e-11 -3.81105e-10 -7.73091 5.47488 -0.417314 -2.10035e-11 -6.36195e-11 -3.81117e-10 -2.90554 0.965183 -0.102902 -2.10114e-11 -6.36192e-11 -3.81115e-10 -10.2786 0.731801 -0.0259123 -2.09989e-11 -6.36176e-11 -3.81126e-10 -2.22167 -0.733487 0.20892 -2.03217e-16 0.0 -3.88251e-19 3.51274 -6.85535 1.34936 0.0391519 7.76455 0.125711 -0.464125 3.66856 0.209823 2.03217e-16 0.0 3.88251e-19 1.69873 -14.1575 1.87106 -0.0231684 9.8281 -0.123314 0.593815 -0.114095 1.93055
40.9605 82.0399 -200.042 -3.4277 1.1768 6.9736 2.73764 -3.56163 0.902902 1.4645 0.380008 0.203827 -7.75768 -0.996731 -2.98148 14.0047 -5.30914 -2.37921 -0.0 0.0 0.0 -0.0 0.0 0.0 4.56619e-14 -4.21969e-14 2.18228e-14 39.2993 23.9048 -2.01225 -17.1703 -12.7546 25.5901 -0.0895517 -17.8119 -2.4953 -3.93352e-10 8.58412e-10 1.80991e-10 -6.82735e-10 1.49591e-09 3.05569e-10 -3.9335e-10 8.58414e-10 1.80978e-10 7.73091 5.47488 0.417314 -3.93353e-10 8.58412e-10 1.80988e-10 2.90554 0.965183 0.102902 -3.93348e-10 8.58413e-10 1.80992e-10 10.2786 0.731801 0.0259123 -3.93359e-10 8.58415e-10 1.81e-10 2.22167 -0.733487 -0.20892 4.56205e-14 -4.21949e-14 2.14346e-14 -44.6375 18.1194 1.28801 7.73591 -3.53268 -12.8519 0.0044477 -4.03403 0.566841 -7.43652e-11 -1.2657e-10 -7.79412e-10 -1.24171e-10 -2.12944e-10 -1.34978e-09 -7.43669e-11 -1.2657e-10 -7.79405e-10 -7.73091 5.47488 -0.417314 -7.43622e-11 -1.26568e-10 -7.79417e-10 -2.90554 0.965183 -0.102902 -7.43705e-11 -1.26568e-10 -7.79413e-10 -10.2786 0.731801 -0.0259123 -7.43569e-11 -1.26565e-10 -7.79421e-10 -2.22167 -0.733487 0.20892 -2.03217e-16 0.0 -3.88251e-19 6.69938 -10.1582 2.84998 0.044895 14.6208 0.29634 -0.473302 5.24834 0.381146 2.03217e-16 0.0 3.88251e-19 4.64852 -26.1906 4.15013 0.0212898 20.9299 -0.334514 1.0025 -3.72532 4.09215
40.9404 82.0662 -199.449 -3.421 1.0206 7.075 3.8975 -5.19369 1.30909 2.10016 0.56317 0.289468 -11.326 -1.47149 -4.33979 20.2615 -7.71012 -3.47769 -0.0 0.0 0.0 -0.0 0.0 0.0 6.2488e-14 -6.50985e-14 3.16231e-14 57.9979 34.8717 -3.25715 -21.3348 -16.4446 38.1734 -0.707542 -25.9946 -3.86107 -5.86441e-10 1.26375e-09 2.48296e-10 -1.0173e-09 2.20109e-09 4.18511e-10 -5.8644e-10 1.26375e-09 2.48286e-10 7.73091 5.47488 0.417314 -5.86442e-10 1.26375e-09 2.48295e-10 2.90554 0.965183 0.102902 -5.86439e-10 1.26375e-09 2.48299e-10 10.2786 0.731801 0.0259123 -5.86449e-10 1.26375e-09 2.48306e-10 2.22167 -0.733487 -0.20892 6.24694e-14 -6.50959e-14 3.1236e-14 -65.4057 26.4476 2.01142 10.768 -5.01193 -18.7994 0.0333585 -5.88816 0.829744 -1.07773e-10 -1.90689e-10 -1.14249e-09 -1.79976e-10 -3.21159e-10 -1.97847e-09 -1.07773e-10 -1.90688e-10 -1.14249e-09 -7.73091 5.47488 -0.417314 -1.07769e-10 -1.90686e-10 -1.1425e-09 -2.90554 0.965183 -0.102902 -1.07778e-10 -1.90686e-10 -1.14249e-09 -10.2786 0.731801 -0.0259123 -1.07763e-10 -1.90682e-10 -1.1425e-09 -2.22167 -0.733487 0.20892 -2.03217e-16 0.0 -3.88251e-19 9.67835 -12.9514 4.23887 0.0137374 20.6553 0.462967 -0.479838 6.05696 0.425859 2.03217e-16 0.0 3.88251e-19 8.28743 -36.8058 6.72624 0.139597 30.6264 -0.558066 1.60438 -6.94582 6.07357
